<?xml version="1.0" encoding="UTF-8" standalone="no"?>
<!DOCTYPE svg PUBLIC "-//W3C//DTD SVG 1.1//EN"
 "http://www.w3.org/Graphics/SVG/1.1/DTD/svg11.dtd">
<!-- Generated by graphviz version 2.40.1 (20161225.0304)
 -->
<!-- Title: dependencies Pages: 1 -->
<svg width="1286pt" height="284pt"
 viewBox="0.00 0.00 1286.00 284.00" xmlns="http://www.w3.org/2000/svg" xmlns:xlink="http://www.w3.org/1999/xlink">
<g id="graph0" class="graph" transform="scale(1 1) rotate(0) translate(4 280)">
<title>dependencies</title>
<polygon fill="#ffffff" stroke="transparent" points="-4,4 -4,-280 1282,-280 1282,4 -4,4"/>
<text text-anchor="start" x="618.0091" y="-42.4" font-family="sans-serif" font-weight="bold" font-size="14.00" fill="#000000">Legend</text>
<polygon fill="#ffffb3" stroke="transparent" points="405,-10 405,-30 425,-30 425,-10 405,-10"/>
<text text-anchor="start" x="428.629" y="-15.4" font-family="sans-serif" font-size="14.00" fill="#000000"> &#160;Declarations</text>
<polygon fill="#8dd3c7" stroke="transparent" points="518,-10 518,-30 538,-30 538,-10 518,-10"/>
<text text-anchor="start" x="541.7251" y="-15.4" font-family="sans-serif" font-size="14.00" fill="#000000"> &#160;Module</text>
<polygon fill="#80b1d3" stroke="transparent" points="604,-10 604,-30 624,-30 624,-10 604,-10"/>
<text text-anchor="start" x="627.7812" y="-15.4" font-family="sans-serif" font-size="14.00" fill="#000000"> &#160;Bootstrap</text>
<polygon fill="#fdb462" stroke="transparent" points="701,-10 701,-30 721,-30 721,-10 701,-10"/>
<text text-anchor="start" x="724.6732" y="-15.4" font-family="sans-serif" font-size="14.00" fill="#000000"> &#160;Providers</text>
<polygon fill="#fb8072" stroke="transparent" points="797,-10 797,-30 817,-30 817,-10 797,-10"/>
<text text-anchor="start" x="820.7258" y="-15.4" font-family="sans-serif" font-size="14.00" fill="#000000"> &#160;Exports</text>
<g id="clust1" class="cluster">
<title>cluster_AppModule</title>
<polygon fill="none" stroke="#000000" stroke-dasharray="1,5" points="8,-70 8,-268 1270,-268 1270,-70 8,-70"/>
</g>
<g id="clust2" class="cluster">
<title>cluster_AppModule_declarations</title>
<polygon fill="none" stroke="#000000" points="156,-78 156,-130 1262,-130 1262,-78 156,-78"/>
</g>
<g id="clust11" class="cluster">
<title>cluster_AppModule_bootstrap</title>
<polygon fill="none" stroke="#000000" points="579,-208 579,-260 703,-260 703,-208 579,-208"/>
</g>
<g id="clust12" class="cluster">
<title>cluster_AppModule_providers</title>
<polygon fill="none" stroke="#000000" points="16,-78 16,-130 148,-130 148,-78 16,-78"/>
</g>
<!-- AppComponent -->
<g id="node1" class="node">
<title>AppComponent</title>
<polygon fill="#ffffb3" stroke="#000000" points="1253.9399,-122 1148.0601,-122 1148.0601,-86 1253.9399,-86 1253.9399,-122"/>
<text text-anchor="middle" x="1201" y="-99.8" font-family="Times,serif" font-size="14.00" fill="#000000">AppComponent</text>
</g>
<!-- AppModule -->
<g id="node7" class="node">
<title>AppModule</title>
<polygon fill="#8dd3c7" stroke="#000000" points="682.6571,-187 679.6571,-191 658.6571,-191 655.6571,-187 599.3429,-187 599.3429,-151 682.6571,-151 682.6571,-187"/>
<text text-anchor="middle" x="641" y="-164.8" font-family="Times,serif" font-size="14.00" fill="#000000">AppModule</text>
</g>
<!-- AppComponent&#45;&gt;AppModule -->
<g id="edge1" class="edge">
<title>AppComponent&#45;&gt;AppModule</title>
<path fill="none" stroke="#000000" d="M1201,-122.2921C1201,-144.2057 1201,-178 1201,-178 1201,-178 693.091,-178 693.091,-178"/>
<polygon fill="#000000" stroke="#000000" points="693.0911,-174.5001 683.091,-178 693.091,-181.5001 693.0911,-174.5001"/>
</g>
<!-- RankingsAcademiasComponent -->
<g id="node2" class="node">
<title>RankingsAcademiasComponent</title>
<polygon fill="#ffffb3" stroke="#000000" points="1130.41,-122 933.59,-122 933.59,-86 1130.41,-86 1130.41,-122"/>
<text text-anchor="middle" x="1032" y="-99.8" font-family="Times,serif" font-size="14.00" fill="#000000">RankingsAcademiasComponent</text>
</g>
<!-- RankingsAcademiasComponent&#45;&gt;AppModule -->
<g id="edge2" class="edge">
<title>RankingsAcademiasComponent&#45;&gt;AppModule</title>
<path fill="none" stroke="#000000" d="M1032,-122.1061C1032,-141.3391 1032,-169 1032,-169 1032,-169 692.8438,-169 692.8438,-169"/>
<polygon fill="#000000" stroke="#000000" points="692.8439,-165.5001 682.8438,-169 692.8438,-172.5001 692.8439,-165.5001"/>
</g>
<!-- RankingsBaseComponent -->
<g id="node3" class="node">
<title>RankingsBaseComponent</title>
<polygon fill="#ffffb3" stroke="#000000" points="915.9298,-122 754.0702,-122 754.0702,-86 915.9298,-86 915.9298,-122"/>
<text text-anchor="middle" x="835" y="-99.8" font-family="Times,serif" font-size="14.00" fill="#000000">RankingsBaseComponent</text>
</g>
<!-- RankingsBaseComponent&#45;&gt;AppModule -->
<g id="edge3" class="edge">
<title>RankingsBaseComponent&#45;&gt;AppModule</title>
<path fill="none" stroke="#000000" d="M835,-122.027C835,-138.3976 835,-160 835,-160 835,-160 693.0951,-160 693.0951,-160"/>
<polygon fill="#000000" stroke="#000000" points="693.0951,-156.5001 683.0951,-160 693.0951,-163.5001 693.0951,-156.5001"/>
</g>
<!-- RankingsLutadoresComponent -->
<g id="node4" class="node">
<title>RankingsLutadoresComponent</title>
<polygon fill="#ffffb3" stroke="#000000" points="736.1965,-122 545.8035,-122 545.8035,-86 736.1965,-86 736.1965,-122"/>
<text text-anchor="middle" x="641" y="-99.8" font-family="Times,serif" font-size="14.00" fill="#000000">RankingsLutadoresComponent</text>
</g>
<!-- RankingsLutadoresComponent&#45;&gt;AppModule -->
<g id="edge4" class="edge">
<title>RankingsLutadoresComponent&#45;&gt;AppModule</title>
<path fill="none" stroke="#000000" d="M641,-122.1061C641,-122.1061 641,-140.991 641,-140.991"/>
<polygon fill="#000000" stroke="#000000" points="637.5001,-140.9909 641,-150.991 644.5001,-140.991 637.5001,-140.9909"/>
</g>
<!-- RankingsNacoesComponent -->
<g id="node5" class="node">
<title>RankingsNacoesComponent</title>
<polygon fill="#ffffb3" stroke="#000000" points="527.9143,-122 352.0857,-122 352.0857,-86 527.9143,-86 527.9143,-122"/>
<text text-anchor="middle" x="440" y="-99.8" font-family="Times,serif" font-size="14.00" fill="#000000">RankingsNacoesComponent</text>
</g>
<!-- RankingsNacoesComponent&#45;&gt;AppModule -->
<g id="edge5" class="edge">
<title>RankingsNacoesComponent&#45;&gt;AppModule</title>
<path fill="none" stroke="#000000" d="M440,-122.027C440,-138.3976 440,-160 440,-160 440,-160 588.8638,-160 588.8638,-160"/>
<polygon fill="#000000" stroke="#000000" points="588.8638,-163.5001 598.8638,-160 588.8638,-156.5001 588.8638,-163.5001"/>
</g>
<!-- TaleOfTheTapeComponent -->
<g id="node6" class="node">
<title>TaleOfTheTapeComponent</title>
<polygon fill="#ffffb3" stroke="#000000" points="334.2212,-122 163.7788,-122 163.7788,-86 334.2212,-86 334.2212,-122"/>
<text text-anchor="middle" x="249" y="-99.8" font-family="Times,serif" font-size="14.00" fill="#000000">TaleOfTheTapeComponent</text>
</g>
<!-- TaleOfTheTapeComponent&#45;&gt;AppModule -->
<g id="edge6" class="edge">
<title>TaleOfTheTapeComponent&#45;&gt;AppModule</title>
<path fill="none" stroke="#000000" d="M249,-122.1061C249,-141.3391 249,-169 249,-169 249,-169 589.0491,-169 589.0491,-169"/>
<polygon fill="#000000" stroke="#000000" points="589.0492,-172.5001 599.0491,-169 589.0491,-165.5001 589.0492,-172.5001"/>
</g>
<!-- AppComponent  -->
<g id="node8" class="node">
<title>AppComponent </title>
<polygon fill="#80b1d3" stroke="#000000" points="695.439,-252 586.561,-252 586.561,-216 695.439,-216 695.439,-252"/>
<text text-anchor="middle" x="641" y="-229.8" font-family="Times,serif" font-size="14.00" fill="#000000">AppComponent </text>
</g>
<!-- AppModule&#45;&gt;AppComponent  -->
<g id="edge7" class="edge">
<title>AppModule&#45;&gt;AppComponent </title>
<path fill="none" stroke="#000000" stroke-dasharray="1,5" d="M641,-187.1061C641,-187.1061 641,-205.991 641,-205.991"/>
<polygon fill="#000000" stroke="#000000" points="637.5001,-205.9909 641,-215.991 644.5001,-205.991 637.5001,-205.9909"/>
</g>
<!-- DataService -->
<g id="node9" class="node">
<title>DataService</title>
<ellipse fill="#fdb462" stroke="#000000" cx="82" cy="-104" rx="58.4415" ry="18"/>
<text text-anchor="middle" x="82" y="-99.8" font-family="Times,serif" font-size="14.00" fill="#000000">DataService</text>
</g>
<!-- DataService&#45;&gt;AppModule -->
<g id="edge8" class="edge">
<title>DataService&#45;&gt;AppModule</title>
<path fill="none" stroke="#000000" d="M82,-122.2921C82,-144.2057 82,-178 82,-178 82,-178 588.9841,-178 588.9841,-178"/>
<polygon fill="#000000" stroke="#000000" points="588.9842,-181.5001 598.9841,-178 588.9841,-174.5001 588.9842,-181.5001"/>
</g>
</g>
</svg>
