<?xml version="1.0" encoding="UTF-8" standalone="no"?>
<!DOCTYPE svg PUBLIC "-//W3C//DTD SVG 1.1//EN"
 "http://www.w3.org/Graphics/SVG/1.1/DTD/svg11.dtd">
<!-- Generated by graphviz version 2.40.1 (20161225.0304)
 -->
<!-- Title: dependencies Pages: 1 -->
<svg width="2140pt" height="284pt"
 viewBox="0.00 0.00 2140.00 284.00" xmlns="http://www.w3.org/2000/svg" xmlns:xlink="http://www.w3.org/1999/xlink">
<g id="graph0" class="graph" transform="scale(1 1) rotate(0) translate(4 280)">
<title>dependencies</title>
<polygon fill="#ffffff" stroke="transparent" points="-4,4 -4,-280 2136,-280 2136,4 -4,4"/>
<text text-anchor="start" x="1045.0091" y="-42.4" font-family="sans-serif" font-weight="bold" font-size="14.00" fill="#000000">Legend</text>
<polygon fill="#ffffb3" stroke="transparent" points="832,-10 832,-30 852,-30 852,-10 832,-10"/>
<text text-anchor="start" x="855.629" y="-15.4" font-family="sans-serif" font-size="14.00" fill="#000000"> &#160;Declarations</text>
<polygon fill="#8dd3c7" stroke="transparent" points="945,-10 945,-30 965,-30 965,-10 945,-10"/>
<text text-anchor="start" x="968.7251" y="-15.4" font-family="sans-serif" font-size="14.00" fill="#000000"> &#160;Module</text>
<polygon fill="#80b1d3" stroke="transparent" points="1031,-10 1031,-30 1051,-30 1051,-10 1031,-10"/>
<text text-anchor="start" x="1054.7812" y="-15.4" font-family="sans-serif" font-size="14.00" fill="#000000"> &#160;Bootstrap</text>
<polygon fill="#fdb462" stroke="transparent" points="1128,-10 1128,-30 1148,-30 1148,-10 1128,-10"/>
<text text-anchor="start" x="1151.6732" y="-15.4" font-family="sans-serif" font-size="14.00" fill="#000000"> &#160;Providers</text>
<polygon fill="#fb8072" stroke="transparent" points="1224,-10 1224,-30 1244,-30 1244,-10 1224,-10"/>
<text text-anchor="start" x="1247.7258" y="-15.4" font-family="sans-serif" font-size="14.00" fill="#000000"> &#160;Exports</text>
<g id="clust1" class="cluster">
<title>cluster_AppModule</title>
<polygon fill="none" stroke="#000000" stroke-dasharray="1,5" points="8,-70 8,-268 2124,-268 2124,-70 8,-70"/>
</g>
<g id="clust2" class="cluster">
<title>cluster_AppModule_declarations</title>
<polygon fill="none" stroke="#000000" points="156,-78 156,-130 2116,-130 2116,-78 156,-78"/>
</g>
<g id="clust17" class="cluster">
<title>cluster_AppModule_bootstrap</title>
<polygon fill="none" stroke="#000000" points="1073,-208 1073,-260 1197,-260 1197,-208 1073,-208"/>
</g>
<g id="clust18" class="cluster">
<title>cluster_AppModule_providers</title>
<polygon fill="none" stroke="#000000" points="16,-78 16,-130 148,-130 148,-78 16,-78"/>
</g>
<!-- AppComponent -->
<g id="node1" class="node">
<title>AppComponent</title>
<polygon fill="#ffffb3" stroke="#000000" points="2107.9399,-122 2002.0601,-122 2002.0601,-86 2107.9399,-86 2107.9399,-122"/>
<text text-anchor="middle" x="2055" y="-99.8" font-family="Times,serif" font-size="14.00" fill="#000000">AppComponent</text>
</g>
<!-- AppModule -->
<g id="node13" class="node">
<title>AppModule</title>
<polygon fill="#8dd3c7" stroke="#000000" points="1176.6571,-187 1173.6571,-191 1152.6571,-191 1149.6571,-187 1093.3429,-187 1093.3429,-151 1176.6571,-151 1176.6571,-187"/>
<text text-anchor="middle" x="1135" y="-164.8" font-family="Times,serif" font-size="14.00" fill="#000000">AppModule</text>
</g>
<!-- AppComponent&#45;&gt;AppModule -->
<g id="edge1" class="edge">
<title>AppComponent&#45;&gt;AppModule</title>
<path fill="none" stroke="#000000" d="M2055,-122.0908C2055,-145.1328 2055,-182 2055,-182 2055,-182 1186.9211,-182 1186.9211,-182"/>
<polygon fill="#000000" stroke="#000000" points="1186.9212,-178.5001 1176.9211,-182 1186.9211,-185.5001 1186.9212,-178.5001"/>
</g>
<!-- ContatoComponent -->
<g id="node2" class="node">
<title>ContatoComponent</title>
<polygon fill="#ffffb3" stroke="#000000" points="1983.6652,-122 1858.3348,-122 1858.3348,-86 1983.6652,-86 1983.6652,-122"/>
<text text-anchor="middle" x="1921" y="-99.8" font-family="Times,serif" font-size="14.00" fill="#000000">ContatoComponent</text>
</g>
<!-- ContatoComponent&#45;&gt;AppModule -->
<g id="edge2" class="edge">
<title>ContatoComponent&#45;&gt;AppModule</title>
<path fill="none" stroke="#000000" d="M1921,-122.0449C1921,-143.6623 1921,-177 1921,-177 1921,-177 1186.7038,-177 1186.7038,-177"/>
<polygon fill="#000000" stroke="#000000" points="1186.7039,-173.5001 1176.7038,-177 1186.7038,-180.5001 1186.7039,-173.5001"/>
</g>
<!-- FooterComponent -->
<g id="node3" class="node">
<title>FooterComponent</title>
<polygon fill="#ffffb3" stroke="#000000" points="1839.8809,-122 1722.1191,-122 1722.1191,-86 1839.8809,-86 1839.8809,-122"/>
<text text-anchor="middle" x="1781" y="-99.8" font-family="Times,serif" font-size="14.00" fill="#000000">FooterComponent</text>
</g>
<!-- FooterComponent&#45;&gt;AppModule -->
<g id="edge3" class="edge">
<title>FooterComponent&#45;&gt;AppModule</title>
<path fill="none" stroke="#000000" d="M1781,-122.2228C1781,-142.3652 1781,-172 1781,-172 1781,-172 1186.8881,-172 1186.8881,-172"/>
<polygon fill="#000000" stroke="#000000" points="1186.8882,-168.5001 1176.8881,-172 1186.8881,-175.5001 1186.8882,-168.5001"/>
</g>
<!-- HeaderComponent -->
<g id="node4" class="node">
<title>HeaderComponent</title>
<polygon fill="#ffffb3" stroke="#000000" points="1703.7437,-122 1582.2563,-122 1582.2563,-86 1703.7437,-86 1703.7437,-122"/>
<text text-anchor="middle" x="1643" y="-99.8" font-family="Times,serif" font-size="14.00" fill="#000000">HeaderComponent</text>
</g>
<!-- HeaderComponent&#45;&gt;AppModule -->
<g id="edge4" class="edge">
<title>HeaderComponent&#45;&gt;AppModule</title>
<path fill="none" stroke="#000000" d="M1643,-122.2222C1643,-140.8285 1643,-167 1643,-167 1643,-167 1187.004,-167 1187.004,-167"/>
<polygon fill="#000000" stroke="#000000" points="1187.004,-163.5001 1177.004,-167 1187.0039,-170.5001 1187.004,-163.5001"/>
</g>
<!-- HomeComponent -->
<g id="node5" class="node">
<title>HomeComponent</title>
<polygon fill="#ffffb3" stroke="#000000" points="1563.5451,-122 1448.4549,-122 1448.4549,-86 1563.5451,-86 1563.5451,-122"/>
<text text-anchor="middle" x="1506" y="-99.8" font-family="Times,serif" font-size="14.00" fill="#000000">HomeComponent</text>
</g>
<!-- HomeComponent&#45;&gt;AppModule -->
<g id="edge5" class="edge">
<title>HomeComponent&#45;&gt;AppModule</title>
<path fill="none" stroke="#000000" d="M1506,-122.0336C1506,-139.0597 1506,-162 1506,-162 1506,-162 1186.8372,-162 1186.8372,-162"/>
<polygon fill="#000000" stroke="#000000" points="1186.8373,-158.5001 1176.8372,-162 1186.8372,-165.5001 1186.8373,-158.5001"/>
</g>
<!-- RankingsAcademiasComponent -->
<g id="node6" class="node">
<title>RankingsAcademiasComponent</title>
<polygon fill="#ffffb3" stroke="#000000" points="1430.41,-122 1233.59,-122 1233.59,-86 1430.41,-86 1430.41,-122"/>
<text text-anchor="middle" x="1332" y="-99.8" font-family="Times,serif" font-size="14.00" fill="#000000">RankingsAcademiasComponent</text>
</g>
<!-- RankingsAcademiasComponent&#45;&gt;AppModule -->
<g id="edge6" class="edge">
<title>RankingsAcademiasComponent&#45;&gt;AppModule</title>
<path fill="none" stroke="#000000" d="M1332,-122.2396C1332,-137.5706 1332,-157 1332,-157 1332,-157 1186.7786,-157 1186.7786,-157"/>
<polygon fill="#000000" stroke="#000000" points="1186.7787,-153.5001 1176.7786,-157 1186.7786,-160.5001 1186.7787,-153.5001"/>
</g>
<!-- RankingsBaseComponent -->
<g id="node7" class="node">
<title>RankingsBaseComponent</title>
<polygon fill="#ffffb3" stroke="#000000" points="1215.9298,-122 1054.0702,-122 1054.0702,-86 1215.9298,-86 1215.9298,-122"/>
<text text-anchor="middle" x="1135" y="-99.8" font-family="Times,serif" font-size="14.00" fill="#000000">RankingsBaseComponent</text>
</g>
<!-- RankingsBaseComponent&#45;&gt;AppModule -->
<g id="edge7" class="edge">
<title>RankingsBaseComponent&#45;&gt;AppModule</title>
<path fill="none" stroke="#000000" d="M1135,-122.1061C1135,-122.1061 1135,-140.991 1135,-140.991"/>
<polygon fill="#000000" stroke="#000000" points="1131.5001,-140.9909 1135,-150.991 1138.5001,-140.991 1131.5001,-140.9909"/>
</g>
<!-- RankingsLutadoresComponent -->
<g id="node8" class="node">
<title>RankingsLutadoresComponent</title>
<polygon fill="#ffffb3" stroke="#000000" points="1036.1965,-122 845.8035,-122 845.8035,-86 1036.1965,-86 1036.1965,-122"/>
<text text-anchor="middle" x="941" y="-99.8" font-family="Times,serif" font-size="14.00" fill="#000000">RankingsLutadoresComponent</text>
</g>
<!-- RankingsLutadoresComponent&#45;&gt;AppModule -->
<g id="edge8" class="edge">
<title>RankingsLutadoresComponent&#45;&gt;AppModule</title>
<path fill="none" stroke="#000000" d="M941,-122.2396C941,-137.5706 941,-157 941,-157 941,-157 1082.9049,-157 1082.9049,-157"/>
<polygon fill="#000000" stroke="#000000" points="1082.9049,-160.5001 1092.9049,-157 1082.9049,-153.5001 1082.9049,-160.5001"/>
</g>
<!-- RankingsNacoesComponent -->
<g id="node9" class="node">
<title>RankingsNacoesComponent</title>
<polygon fill="#ffffb3" stroke="#000000" points="827.9143,-122 652.0857,-122 652.0857,-86 827.9143,-86 827.9143,-122"/>
<text text-anchor="middle" x="740" y="-99.8" font-family="Times,serif" font-size="14.00" fill="#000000">RankingsNacoesComponent</text>
</g>
<!-- RankingsNacoesComponent&#45;&gt;AppModule -->
<g id="edge9" class="edge">
<title>RankingsNacoesComponent&#45;&gt;AppModule</title>
<path fill="none" stroke="#000000" d="M740,-122.0336C740,-139.0597 740,-162 740,-162 740,-162 1083.102,-162 1083.102,-162"/>
<polygon fill="#000000" stroke="#000000" points="1083.1021,-165.5001 1093.102,-162 1083.102,-158.5001 1083.1021,-165.5001"/>
</g>
<!-- SaibaMaisComponent -->
<g id="node10" class="node">
<title>SaibaMaisComponent</title>
<polygon fill="#ffffb3" stroke="#000000" points="634.4299,-122 493.5701,-122 493.5701,-86 634.4299,-86 634.4299,-122"/>
<text text-anchor="middle" x="564" y="-99.8" font-family="Times,serif" font-size="14.00" fill="#000000">SaibaMaisComponent</text>
</g>
<!-- SaibaMaisComponent&#45;&gt;AppModule -->
<g id="edge10" class="edge">
<title>SaibaMaisComponent&#45;&gt;AppModule</title>
<path fill="none" stroke="#000000" d="M564,-122.2222C564,-140.8285 564,-167 564,-167 564,-167 1083.013,-167 1083.013,-167"/>
<polygon fill="#000000" stroke="#000000" points="1083.013,-170.5001 1093.013,-167 1083.013,-163.5001 1083.013,-170.5001"/>
</g>
<!-- SidebarComponent -->
<g id="node11" class="node">
<title>SidebarComponent</title>
<polygon fill="#ffffb3" stroke="#000000" points="476.0954,-122 351.9046,-122 351.9046,-86 476.0954,-86 476.0954,-122"/>
<text text-anchor="middle" x="414" y="-99.8" font-family="Times,serif" font-size="14.00" fill="#000000">SidebarComponent</text>
</g>
<!-- SidebarComponent&#45;&gt;AppModule -->
<g id="edge11" class="edge">
<title>SidebarComponent&#45;&gt;AppModule</title>
<path fill="none" stroke="#000000" d="M414,-122.2228C414,-142.3652 414,-172 414,-172 414,-172 1083.1196,-172 1083.1196,-172"/>
<polygon fill="#000000" stroke="#000000" points="1083.1196,-175.5001 1093.1196,-172 1083.1195,-168.5001 1083.1196,-175.5001"/>
</g>
<!-- TaleOfTheTapeComponent -->
<g id="node12" class="node">
<title>TaleOfTheTapeComponent</title>
<polygon fill="#ffffb3" stroke="#000000" points="334.2212,-122 163.7788,-122 163.7788,-86 334.2212,-86 334.2212,-122"/>
<text text-anchor="middle" x="249" y="-99.8" font-family="Times,serif" font-size="14.00" fill="#000000">TaleOfTheTapeComponent</text>
</g>
<!-- TaleOfTheTapeComponent&#45;&gt;AppModule -->
<g id="edge12" class="edge">
<title>TaleOfTheTapeComponent&#45;&gt;AppModule</title>
<path fill="none" stroke="#000000" d="M249,-122.0449C249,-143.6623 249,-177 249,-177 249,-177 1083.1591,-177 1083.1591,-177"/>
<polygon fill="#000000" stroke="#000000" points="1083.1591,-180.5001 1093.1591,-177 1083.159,-173.5001 1083.1591,-180.5001"/>
</g>
<!-- AppComponent  -->
<g id="node14" class="node">
<title>AppComponent </title>
<polygon fill="#80b1d3" stroke="#000000" points="1189.439,-252 1080.561,-252 1080.561,-216 1189.439,-216 1189.439,-252"/>
<text text-anchor="middle" x="1135" y="-229.8" font-family="Times,serif" font-size="14.00" fill="#000000">AppComponent </text>
</g>
<!-- AppModule&#45;&gt;AppComponent  -->
<g id="edge13" class="edge">
<title>AppModule&#45;&gt;AppComponent </title>
<path fill="none" stroke="#000000" stroke-dasharray="1,5" d="M1135,-187.1061C1135,-187.1061 1135,-205.991 1135,-205.991"/>
<polygon fill="#000000" stroke="#000000" points="1131.5001,-205.9909 1135,-215.991 1138.5001,-205.991 1131.5001,-205.9909"/>
</g>
<!-- DataService -->
<g id="node15" class="node">
<title>DataService</title>
<ellipse fill="#fdb462" stroke="#000000" cx="82" cy="-104" rx="58.4415" ry="18"/>
<text text-anchor="middle" x="82" y="-99.8" font-family="Times,serif" font-size="14.00" fill="#000000">DataService</text>
</g>
<!-- DataService&#45;&gt;AppModule -->
<g id="edge14" class="edge">
<title>DataService&#45;&gt;AppModule</title>
<path fill="none" stroke="#000000" d="M82,-122.0908C82,-145.1328 82,-182 82,-182 82,-182 1083.0713,-182 1083.0713,-182"/>
<polygon fill="#000000" stroke="#000000" points="1083.0714,-185.5001 1093.0713,-182 1083.0713,-178.5001 1083.0714,-185.5001"/>
</g>
</g>
</svg>
