<?xml version="1.0" encoding="UTF-8" standalone="no"?>
<!DOCTYPE svg PUBLIC "-//W3C//DTD SVG 1.1//EN"
 "http://www.w3.org/Graphics/SVG/1.1/DTD/svg11.dtd">
<!-- Generated by graphviz version 2.40.1 (20161225.0304)
 -->
<!-- Title: dependencies Pages: 1 -->
<svg width="3963pt" height="284pt"
 viewBox="0.00 0.00 3963.00 284.00" xmlns="http://www.w3.org/2000/svg" xmlns:xlink="http://www.w3.org/1999/xlink">
<g id="graph0" class="graph" transform="scale(1 1) rotate(0) translate(4 280)">
<title>dependencies</title>
<polygon fill="#ffffff" stroke="transparent" points="-4,4 -4,-280 3959,-280 3959,4 -4,4"/>
<text text-anchor="start" x="1956.5091" y="-42.4" font-family="sans-serif" font-weight="bold" font-size="14.00" fill="#000000">Legend</text>
<polygon fill="#ffffb3" stroke="transparent" points="1743.5,-10 1743.5,-30 1763.5,-30 1763.5,-10 1743.5,-10"/>
<text text-anchor="start" x="1767.129" y="-15.4" font-family="sans-serif" font-size="14.00" fill="#000000"> &#160;Declarations</text>
<polygon fill="#8dd3c7" stroke="transparent" points="1856.5,-10 1856.5,-30 1876.5,-30 1876.5,-10 1856.5,-10"/>
<text text-anchor="start" x="1880.2251" y="-15.4" font-family="sans-serif" font-size="14.00" fill="#000000"> &#160;Module</text>
<polygon fill="#80b1d3" stroke="transparent" points="1942.5,-10 1942.5,-30 1962.5,-30 1962.5,-10 1942.5,-10"/>
<text text-anchor="start" x="1966.2812" y="-15.4" font-family="sans-serif" font-size="14.00" fill="#000000"> &#160;Bootstrap</text>
<polygon fill="#fdb462" stroke="transparent" points="2039.5,-10 2039.5,-30 2059.5,-30 2059.5,-10 2039.5,-10"/>
<text text-anchor="start" x="2063.1732" y="-15.4" font-family="sans-serif" font-size="14.00" fill="#000000"> &#160;Providers</text>
<polygon fill="#fb8072" stroke="transparent" points="2135.5,-10 2135.5,-30 2155.5,-30 2155.5,-10 2135.5,-10"/>
<text text-anchor="start" x="2159.2258" y="-15.4" font-family="sans-serif" font-size="14.00" fill="#000000"> &#160;Exports</text>
<g id="clust1" class="cluster">
<title>cluster_AppModule</title>
<polygon fill="none" stroke="#000000" stroke-dasharray="1,5" points="8,-70 8,-268 3947,-268 3947,-70 8,-70"/>
</g>
<g id="clust2" class="cluster">
<title>cluster_AppModule_declarations</title>
<polygon fill="none" stroke="#000000" points="1979,-78 1979,-130 3939,-130 3939,-78 1979,-78"/>
</g>
<g id="clust15" class="cluster">
<title>cluster_AppModule_imports</title>
<polygon fill="none" stroke="#000000" points="813,-78 813,-130 1971,-130 1971,-78 813,-78"/>
</g>
<g id="clust17" class="cluster">
<title>cluster_AppModule_bootstrap</title>
<polygon fill="none" stroke="#000000" points="1874,-208 1874,-260 1998,-260 1998,-208 1874,-208"/>
</g>
<g id="clust18" class="cluster">
<title>cluster_AppModule_providers</title>
<polygon fill="none" stroke="#000000" points="16,-78 16,-130 805,-130 805,-78 16,-78"/>
</g>
<!-- AppComponent -->
<g id="node1" class="node">
<title>AppComponent</title>
<polygon fill="#ffffb3" stroke="#000000" points="3930.9399,-122 3825.0601,-122 3825.0601,-86 3930.9399,-86 3930.9399,-122"/>
<text text-anchor="middle" x="3878" y="-99.8" font-family="Times,serif" font-size="14.00" fill="#000000">AppComponent</text>
</g>
<!-- AppModule -->
<g id="node13" class="node">
<title>AppModule</title>
<polygon fill="#8dd3c7" stroke="#000000" points="1977.6571,-187 1974.6571,-191 1953.6571,-191 1950.6571,-187 1894.3429,-187 1894.3429,-151 1977.6571,-151 1977.6571,-187"/>
<text text-anchor="middle" x="1936" y="-164.8" font-family="Times,serif" font-size="14.00" fill="#000000">AppModule</text>
</g>
<!-- AppComponent&#45;&gt;AppModule -->
<g id="edge1" class="edge">
<title>AppComponent&#45;&gt;AppModule</title>
<path fill="none" stroke="#000000" d="M3878,-122.1532C3878,-145.7566 3878,-184 3878,-184 3878,-184 1987.9125,-184 1987.9125,-184"/>
<polygon fill="#000000" stroke="#000000" points="1987.9126,-180.5001 1977.9125,-184 1987.9125,-187.5001 1987.9126,-180.5001"/>
</g>
<!-- TaleOfTheTapeComponent -->
<g id="node2" class="node">
<title>TaleOfTheTapeComponent</title>
<polygon fill="#ffffb3" stroke="#000000" points="3807.2212,-122 3636.7788,-122 3636.7788,-86 3807.2212,-86 3807.2212,-122"/>
<text text-anchor="middle" x="3722" y="-99.8" font-family="Times,serif" font-size="14.00" fill="#000000">TaleOfTheTapeComponent</text>
</g>
<!-- TaleOfTheTapeComponent&#45;&gt;AppModule -->
<g id="edge2" class="edge">
<title>TaleOfTheTapeComponent&#45;&gt;AppModule</title>
<path fill="none" stroke="#000000" d="M3722,-122.2479C3722,-145.0179 3722,-181 3722,-181 3722,-181 1987.9518,-181 1987.9518,-181"/>
<polygon fill="#000000" stroke="#000000" points="1987.9518,-177.5001 1977.9518,-181 1987.9518,-184.5001 1987.9518,-177.5001"/>
</g>
<!-- RankingsBaseComponent -->
<g id="node3" class="node">
<title>RankingsBaseComponent</title>
<polygon fill="#ffffb3" stroke="#000000" points="3618.9298,-122 3457.0702,-122 3457.0702,-86 3618.9298,-86 3618.9298,-122"/>
<text text-anchor="middle" x="3538" y="-99.8" font-family="Times,serif" font-size="14.00" fill="#000000">RankingsBaseComponent</text>
</g>
<!-- RankingsBaseComponent&#45;&gt;AppModule -->
<g id="edge3" class="edge">
<title>RankingsBaseComponent&#45;&gt;AppModule</title>
<path fill="none" stroke="#000000" d="M3538,-122.2921C3538,-144.2057 3538,-178 3538,-178 3538,-178 1988.0262,-178 1988.0262,-178"/>
<polygon fill="#000000" stroke="#000000" points="1988.0262,-174.5001 1978.0262,-178 1988.0261,-181.5001 1988.0262,-174.5001"/>
</g>
<!-- RankingsLutadoresComponent -->
<g id="node4" class="node">
<title>RankingsLutadoresComponent</title>
<polygon fill="#ffffb3" stroke="#000000" points="3439.1965,-122 3248.8035,-122 3248.8035,-86 3439.1965,-86 3439.1965,-122"/>
<text text-anchor="middle" x="3344" y="-99.8" font-family="Times,serif" font-size="14.00" fill="#000000">RankingsLutadoresComponent</text>
</g>
<!-- RankingsLutadoresComponent&#45;&gt;AppModule -->
<g id="edge4" class="edge">
<title>RankingsLutadoresComponent&#45;&gt;AppModule</title>
<path fill="none" stroke="#000000" d="M3344,-122.2843C3344,-143.3211 3344,-175 3344,-175 3344,-175 1987.7566,-175 1987.7566,-175"/>
<polygon fill="#000000" stroke="#000000" points="1987.7567,-171.5001 1977.7566,-175 1987.7566,-178.5001 1987.7567,-171.5001"/>
</g>
<!-- RankingsAcademiasComponent -->
<g id="node5" class="node">
<title>RankingsAcademiasComponent</title>
<polygon fill="#ffffb3" stroke="#000000" points="3231.41,-122 3034.59,-122 3034.59,-86 3231.41,-86 3231.41,-122"/>
<text text-anchor="middle" x="3133" y="-99.8" font-family="Times,serif" font-size="14.00" fill="#000000">RankingsAcademiasComponent</text>
</g>
<!-- RankingsAcademiasComponent&#45;&gt;AppModule -->
<g id="edge5" class="edge">
<title>RankingsAcademiasComponent&#45;&gt;AppModule</title>
<path fill="none" stroke="#000000" d="M3133,-122.2228C3133,-142.3652 3133,-172 3133,-172 3133,-172 1987.9,-172 1987.9,-172"/>
<polygon fill="#000000" stroke="#000000" points="1987.9,-168.5001 1977.9,-172 1987.9,-175.5001 1987.9,-168.5001"/>
</g>
<!-- RankingsNacoesComponent -->
<g id="node6" class="node">
<title>RankingsNacoesComponent</title>
<polygon fill="#ffffb3" stroke="#000000" points="3016.9143,-122 2841.0857,-122 2841.0857,-86 3016.9143,-86 3016.9143,-122"/>
<text text-anchor="middle" x="2929" y="-99.8" font-family="Times,serif" font-size="14.00" fill="#000000">RankingsNacoesComponent</text>
</g>
<!-- RankingsNacoesComponent&#45;&gt;AppModule -->
<g id="edge6" class="edge">
<title>RankingsNacoesComponent&#45;&gt;AppModule</title>
<path fill="none" stroke="#000000" d="M2929,-122.1061C2929,-141.3391 2929,-169 2929,-169 2929,-169 1987.7182,-169 1987.7182,-169"/>
<polygon fill="#000000" stroke="#000000" points="1987.7182,-165.5001 1977.7182,-169 1987.7182,-172.5001 1987.7182,-165.5001"/>
</g>
<!-- ContatoComponent -->
<g id="node7" class="node">
<title>ContatoComponent</title>
<polygon fill="#ffffb3" stroke="#000000" points="2822.6652,-122 2697.3348,-122 2697.3348,-86 2822.6652,-86 2822.6652,-122"/>
<text text-anchor="middle" x="2760" y="-99.8" font-family="Times,serif" font-size="14.00" fill="#000000">ContatoComponent</text>
</g>
<!-- ContatoComponent&#45;&gt;AppModule -->
<g id="edge7" class="edge">
<title>ContatoComponent&#45;&gt;AppModule</title>
<path fill="none" stroke="#000000" d="M2760,-122.2667C2760,-140.5552 2760,-166 2760,-166 2760,-166 1987.7106,-166 1987.7106,-166"/>
<polygon fill="#000000" stroke="#000000" points="1987.7107,-162.5001 1977.7106,-166 1987.7106,-169.5001 1987.7107,-162.5001"/>
</g>
<!-- HeaderComponent -->
<g id="node8" class="node">
<title>HeaderComponent</title>
<polygon fill="#ffffb3" stroke="#000000" points="2678.7437,-122 2557.2563,-122 2557.2563,-86 2678.7437,-86 2678.7437,-122"/>
<text text-anchor="middle" x="2618" y="-99.8" font-family="Times,serif" font-size="14.00" fill="#000000">HeaderComponent</text>
</g>
<!-- HeaderComponent&#45;&gt;AppModule -->
<g id="edge8" class="edge">
<title>HeaderComponent&#45;&gt;AppModule</title>
<path fill="none" stroke="#000000" d="M2618,-122.0225C2618,-139.3734 2618,-163 2618,-163 2618,-163 1987.8912,-163 1987.8912,-163"/>
<polygon fill="#000000" stroke="#000000" points="1987.8912,-159.5001 1977.8912,-163 1987.8911,-166.5001 1987.8912,-159.5001"/>
</g>
<!-- SidebarComponent -->
<g id="node9" class="node">
<title>SidebarComponent</title>
<polygon fill="#ffffb3" stroke="#000000" points="2539.0954,-122 2414.9046,-122 2414.9046,-86 2539.0954,-86 2539.0954,-122"/>
<text text-anchor="middle" x="2477" y="-99.8" font-family="Times,serif" font-size="14.00" fill="#000000">SidebarComponent</text>
</g>
<!-- SidebarComponent&#45;&gt;AppModule -->
<g id="edge9" class="edge">
<title>SidebarComponent&#45;&gt;AppModule</title>
<path fill="none" stroke="#000000" d="M2477,-122.027C2477,-138.3976 2477,-160 2477,-160 2477,-160 1988.0012,-160 1988.0012,-160"/>
<polygon fill="#000000" stroke="#000000" points="1988.0012,-156.5001 1978.0012,-160 1988.0012,-163.5001 1988.0012,-156.5001"/>
</g>
<!-- FooterComponent -->
<g id="node10" class="node">
<title>FooterComponent</title>
<polygon fill="#ffffb3" stroke="#000000" points="2396.8809,-122 2279.1191,-122 2279.1191,-86 2396.8809,-86 2396.8809,-122"/>
<text text-anchor="middle" x="2338" y="-99.8" font-family="Times,serif" font-size="14.00" fill="#000000">FooterComponent</text>
</g>
<!-- FooterComponent&#45;&gt;AppModule -->
<g id="edge10" class="edge">
<title>FooterComponent&#45;&gt;AppModule</title>
<path fill="none" stroke="#000000" d="M2338,-122.2396C2338,-137.5706 2338,-157 2338,-157 2338,-157 1987.8834,-157 1987.8834,-157"/>
<polygon fill="#000000" stroke="#000000" points="1987.8834,-153.5001 1977.8834,-157 1987.8834,-160.5001 1987.8834,-153.5001"/>
</g>
<!-- HomeComponent -->
<g id="node11" class="node">
<title>HomeComponent</title>
<polygon fill="#ffffb3" stroke="#000000" points="2260.5451,-122 2145.4549,-122 2145.4549,-86 2260.5451,-86 2260.5451,-122"/>
<text text-anchor="middle" x="2203" y="-99.8" font-family="Times,serif" font-size="14.00" fill="#000000">HomeComponent</text>
</g>
<!-- HomeComponent&#45;&gt;AppModule -->
<g id="edge11" class="edge">
<title>HomeComponent&#45;&gt;AppModule</title>
<path fill="none" stroke="#000000" d="M2203,-122.0511C2203,-136.373 2203,-154 2203,-154 2203,-154 1987.7188,-154 1987.7188,-154"/>
<polygon fill="#000000" stroke="#000000" points="1987.7188,-150.5001 1977.7188,-154 1987.7187,-157.5001 1987.7188,-150.5001"/>
</g>
<!-- SaibaMaisComponent -->
<g id="node12" class="node">
<title>SaibaMaisComponent</title>
<polygon fill="#ffffb3" stroke="#000000" points="2127.4299,-122 1986.5701,-122 1986.5701,-86 2127.4299,-86 2127.4299,-122"/>
<text text-anchor="middle" x="2057" y="-99.8" font-family="Times,serif" font-size="14.00" fill="#000000">SaibaMaisComponent</text>
</g>
<!-- SaibaMaisComponent&#45;&gt;AppModule -->
<g id="edge12" class="edge">
<title>SaibaMaisComponent&#45;&gt;AppModule</title>
<path fill="none" stroke="#000000" d="M1986.7002,-104C1977.0742,-104 1970.4141,-104 1970.4141,-104 1970.4141,-104 1970.4141,-140.8939 1970.4141,-140.8939"/>
<polygon fill="#000000" stroke="#000000" points="1966.9142,-140.8938 1970.4141,-150.8939 1973.9142,-140.8939 1966.9142,-140.8938"/>
</g>
<!-- AppComponent  -->
<g id="node22" class="node">
<title>AppComponent </title>
<polygon fill="#80b1d3" stroke="#000000" points="1990.439,-252 1881.561,-252 1881.561,-216 1990.439,-216 1990.439,-252"/>
<text text-anchor="middle" x="1936" y="-229.8" font-family="Times,serif" font-size="14.00" fill="#000000">AppComponent </text>
</g>
<!-- AppModule&#45;&gt;AppComponent  -->
<g id="edge21" class="edge">
<title>AppModule&#45;&gt;AppComponent </title>
<path fill="none" stroke="#000000" stroke-dasharray="1,5" d="M1936,-187.1061C1936,-187.1061 1936,-205.991 1936,-205.991"/>
<polygon fill="#000000" stroke="#000000" points="1932.5001,-205.9909 1936,-215.991 1939.5001,-205.991 1932.5001,-205.9909"/>
</g>
<!-- routes -->
<g id="node14" class="node">
<title>routes</title>
<polygon fill="#8dd3c7" stroke="#000000" points="1963,-122 1960,-126 1939,-126 1936,-122 1909,-122 1909,-86 1963,-86 1963,-122"/>
<text text-anchor="middle" x="1936" y="-99.8" font-family="Times,serif" font-size="14.00" fill="#000000">routes</text>
</g>
<!-- routes&#45;&gt;AppModule -->
<g id="edge13" class="edge">
<title>routes&#45;&gt;AppModule</title>
<path fill="none" stroke="#000000" d="M1936,-122.1061C1936,-122.1061 1936,-140.991 1936,-140.991"/>
<polygon fill="#000000" stroke="#000000" points="1932.5001,-140.9909 1936,-150.991 1939.5001,-140.991 1932.5001,-140.9909"/>
</g>
<!-- BrowserModule -->
<g id="node15" class="node">
<title>BrowserModule</title>
<polygon fill="#8dd3c7" stroke="#000000" points="1891.4734,-122 1888.4734,-126 1867.4734,-126 1864.4734,-122 1784.5266,-122 1784.5266,-86 1891.4734,-86 1891.4734,-122"/>
<text text-anchor="middle" x="1838" y="-99.8" font-family="Times,serif" font-size="14.00" fill="#000000">BrowserModule</text>
</g>
<!-- BrowserModule&#45;&gt;AppModule -->
<g id="edge14" class="edge">
<title>BrowserModule&#45;&gt;AppModule</title>
<path fill="none" stroke="#000000" d="M1886.5086,-122.0511C1886.5086,-136.373 1886.5086,-154 1886.5086,-154 1886.5086,-154 1887.2819,-154 1887.2819,-154"/>
<polygon fill="#000000" stroke="#000000" points="1884.2417,-157.5001 1894.2416,-154 1884.2416,-150.5001 1884.2417,-157.5001"/>
</g>
<!-- FormsModule -->
<g id="node16" class="node">
<title>FormsModule</title>
<polygon fill="#8dd3c7" stroke="#000000" points="1766.8288,-122 1763.8288,-126 1742.8288,-126 1739.8288,-122 1671.1712,-122 1671.1712,-86 1766.8288,-86 1766.8288,-122"/>
<text text-anchor="middle" x="1719" y="-99.8" font-family="Times,serif" font-size="14.00" fill="#000000">FormsModule</text>
</g>
<!-- FormsModule&#45;&gt;AppModule -->
<g id="edge15" class="edge">
<title>FormsModule&#45;&gt;AppModule</title>
<path fill="none" stroke="#000000" d="M1719,-122.2396C1719,-137.5706 1719,-157 1719,-157 1719,-157 1884.1602,-157 1884.1602,-157"/>
<polygon fill="#000000" stroke="#000000" points="1884.1603,-160.5001 1894.1602,-157 1884.1602,-153.5001 1884.1603,-160.5001"/>
</g>
<!-- HttpClientModule -->
<g id="node17" class="node">
<title>HttpClientModule</title>
<polygon fill="#8dd3c7" stroke="#000000" points="1653.1611,-122 1650.1611,-126 1629.1611,-126 1626.1611,-122 1534.8389,-122 1534.8389,-86 1653.1611,-86 1653.1611,-122"/>
<text text-anchor="middle" x="1594" y="-99.8" font-family="Times,serif" font-size="14.00" fill="#000000">HttpClientModule</text>
</g>
<!-- HttpClientModule&#45;&gt;AppModule -->
<g id="edge16" class="edge">
<title>HttpClientModule&#45;&gt;AppModule</title>
<path fill="none" stroke="#000000" d="M1594,-122.027C1594,-138.3976 1594,-160 1594,-160 1594,-160 1884.0641,-160 1884.0641,-160"/>
<polygon fill="#000000" stroke="#000000" points="1884.0641,-163.5001 1894.0641,-160 1884.0641,-156.5001 1884.0641,-163.5001"/>
</g>
<!-- NgxChartsModule -->
<g id="node18" class="node">
<title>NgxChartsModule</title>
<polygon fill="#8dd3c7" stroke="#000000" points="1517.2036,-122 1514.2036,-126 1493.2036,-126 1490.2036,-122 1396.7964,-122 1396.7964,-86 1517.2036,-86 1517.2036,-122"/>
<text text-anchor="middle" x="1457" y="-99.8" font-family="Times,serif" font-size="14.00" fill="#000000">NgxChartsModule</text>
</g>
<!-- NgxChartsModule&#45;&gt;AppModule -->
<g id="edge17" class="edge">
<title>NgxChartsModule&#45;&gt;AppModule</title>
<path fill="none" stroke="#000000" d="M1457,-122.0225C1457,-139.3734 1457,-163 1457,-163 1457,-163 1884.3298,-163 1884.3298,-163"/>
<polygon fill="#000000" stroke="#000000" points="1884.3299,-166.5001 1894.3298,-163 1884.3298,-159.5001 1884.3299,-166.5001"/>
</g>
<!-- BrowserAnimationsModule -->
<g id="node19" class="node">
<title>BrowserAnimationsModule</title>
<polygon fill="#8dd3c7" stroke="#000000" points="1379.3019,-122 1376.3019,-126 1355.3019,-126 1352.3019,-122 1206.6981,-122 1206.6981,-86 1379.3019,-86 1379.3019,-122"/>
<text text-anchor="middle" x="1293" y="-99.8" font-family="Times,serif" font-size="14.00" fill="#000000">BrowserAnimationsModule</text>
</g>
<!-- BrowserAnimationsModule&#45;&gt;AppModule -->
<g id="edge18" class="edge">
<title>BrowserAnimationsModule&#45;&gt;AppModule</title>
<path fill="none" stroke="#000000" d="M1293,-122.302C1293,-140.2699 1293,-165 1293,-165 1293,-165 1884.3064,-165 1884.3064,-165"/>
<polygon fill="#000000" stroke="#000000" points="1884.3064,-168.5001 1894.3064,-165 1884.3064,-161.5001 1884.3064,-168.5001"/>
</g>
<!-- ServiceWorkerModule.register(args) -->
<g id="node20" class="node">
<title>ServiceWorkerModule.register(args)</title>
<polygon fill="#8dd3c7" stroke="#000000" points="1189.3954,-122 1186.3954,-126 1165.3954,-126 1162.3954,-122 966.6046,-122 966.6046,-86 1189.3954,-86 1189.3954,-122"/>
<text text-anchor="middle" x="1078" y="-99.8" font-family="Times,serif" font-size="14.00" fill="#000000">ServiceWorkerModule.register(args)</text>
</g>
<!-- ServiceWorkerModule.register(args)&#45;&gt;AppModule -->
<g id="edge19" class="edge">
<title>ServiceWorkerModule.register(args)&#45;&gt;AppModule</title>
<path fill="none" stroke="#000000" d="M1078,-122.1686C1078,-141.0898 1078,-168 1078,-168 1078,-168 1884.3269,-168 1884.3269,-168"/>
<polygon fill="#000000" stroke="#000000" points="1884.327,-171.5001 1894.3269,-168 1884.3269,-164.5001 1884.327,-171.5001"/>
</g>
<!-- DropDownsModule -->
<g id="node21" class="node">
<title>DropDownsModule</title>
<polygon fill="#8dd3c7" stroke="#000000" points="948.9748,-122 945.9748,-126 924.9748,-126 921.9748,-122 821.0252,-122 821.0252,-86 948.9748,-86 948.9748,-122"/>
<text text-anchor="middle" x="885" y="-99.8" font-family="Times,serif" font-size="14.00" fill="#000000">DropDownsModule</text>
</g>
<!-- DropDownsModule&#45;&gt;AppModule -->
<g id="edge20" class="edge">
<title>DropDownsModule&#45;&gt;AppModule</title>
<path fill="none" stroke="#000000" d="M885,-122.308C885,-142.1455 885,-171 885,-171 885,-171 1884.151,-171 1884.151,-171"/>
<polygon fill="#000000" stroke="#000000" points="1884.151,-174.5001 1894.151,-171 1884.151,-167.5001 1884.151,-174.5001"/>
</g>
<!-- DataService -->
<g id="node23" class="node">
<title>DataService</title>
<ellipse fill="#fdb462" stroke="#000000" cx="739" cy="-104" rx="58.4415" ry="18"/>
<text text-anchor="middle" x="739" y="-99.8" font-family="Times,serif" font-size="14.00" fill="#000000">DataService</text>
</g>
<!-- DataService&#45;&gt;AppModule -->
<g id="edge22" class="edge">
<title>DataService&#45;&gt;AppModule</title>
<path fill="none" stroke="#000000" d="M739,-122.0267C739,-142.7672 739,-174 739,-174 739,-174 1884.1,-174 1884.1,-174"/>
<polygon fill="#000000" stroke="#000000" points="1884.1,-177.5001 1894.1,-174 1884.1,-170.5001 1884.1,-177.5001"/>
</g>
<!-- EventoService -->
<g id="node24" class="node">
<title>EventoService</title>
<ellipse fill="#fdb462" stroke="#000000" cx="595" cy="-104" rx="67.1946" ry="18"/>
<text text-anchor="middle" x="595" y="-99.8" font-family="Times,serif" font-size="14.00" fill="#000000">EventoService</text>
</g>
<!-- EventoService&#45;&gt;AppModule -->
<g id="edge23" class="edge">
<title>EventoService&#45;&gt;AppModule</title>
<path fill="none" stroke="#000000" d="M595,-122.1686C595,-143.498 595,-176 595,-176 595,-176 1884.0246,-176 1884.0246,-176"/>
<polygon fill="#000000" stroke="#000000" points="1884.0247,-179.5001 1894.0246,-176 1884.0246,-172.5001 1884.0247,-179.5001"/>
</g>
<!-- LutadoresService -->
<g id="node25" class="node">
<title>LutadoresService</title>
<ellipse fill="#fdb462" stroke="#000000" cx="431" cy="-104" rx="78.7086" ry="18"/>
<text text-anchor="middle" x="431" y="-99.8" font-family="Times,serif" font-size="14.00" fill="#000000">LutadoresService</text>
</g>
<!-- LutadoresService&#45;&gt;AppModule -->
<g id="edge24" class="edge">
<title>LutadoresService&#45;&gt;AppModule</title>
<path fill="none" stroke="#000000" d="M431,-122.1554C431,-144.3519 431,-179 431,-179 431,-179 1884.1769,-179 1884.1769,-179"/>
<polygon fill="#000000" stroke="#000000" points="1884.1769,-182.5001 1894.1769,-179 1884.1769,-175.5001 1884.1769,-182.5001"/>
</g>
<!-- LutaService -->
<g id="node26" class="node">
<title>LutaService</title>
<ellipse fill="#fdb462" stroke="#000000" cx="277" cy="-104" rx="57.881" ry="18"/>
<text text-anchor="middle" x="277" y="-99.8" font-family="Times,serif" font-size="14.00" fill="#000000">LutaService</text>
</g>
<!-- LutaService&#45;&gt;AppModule -->
<g id="edge25" class="edge">
<title>LutaService&#45;&gt;AppModule</title>
<path fill="none" stroke="#000000" d="M277,-122.0908C277,-145.1328 277,-182 277,-182 277,-182 1884.1611,-182 1884.1611,-182"/>
<polygon fill="#000000" stroke="#000000" points="1884.1611,-185.5001 1894.1611,-182 1884.161,-178.5001 1884.1611,-185.5001"/>
</g>
<!-- OrganizacaoService -->
<g id="node27" class="node">
<title>OrganizacaoService</title>
<ellipse fill="#fdb462" stroke="#000000" cx="113" cy="-104" rx="88.562" ry="18"/>
<text text-anchor="middle" x="113" y="-99.8" font-family="Times,serif" font-size="14.00" fill="#000000">OrganizacaoService</text>
</g>
<!-- OrganizacaoService&#45;&gt;AppModule -->
<g id="edge26" class="edge">
<title>OrganizacaoService&#45;&gt;AppModule</title>
<path fill="none" stroke="#000000" d="M113,-122.3802C113,-146.2785 113,-185 113,-185 113,-185 1884.0611,-185 1884.0611,-185"/>
<polygon fill="#000000" stroke="#000000" points="1884.0611,-188.5001 1894.0611,-185 1884.0611,-181.5001 1884.0611,-188.5001"/>
</g>
</g>
</svg>
