<?xml version="1.0" encoding="UTF-8" standalone="no"?>
<!DOCTYPE svg PUBLIC "-//W3C//DTD SVG 1.1//EN"
 "http://www.w3.org/Graphics/SVG/1.1/DTD/svg11.dtd">
<!-- Generated by graphviz version 2.40.1 (20161225.0304)
 -->
<!-- Title: dependencies Pages: 1 -->
<svg width="2116pt" height="284pt"
 viewBox="0.00 0.00 2116.00 284.00" xmlns="http://www.w3.org/2000/svg" xmlns:xlink="http://www.w3.org/1999/xlink">
<g id="graph0" class="graph" transform="scale(1 1) rotate(0) translate(4 280)">
<title>dependencies</title>
<polygon fill="#ffffff" stroke="transparent" points="-4,4 -4,-280 2112,-280 2112,4 -4,4"/>
<text text-anchor="start" x="1033.0091" y="-42.4" font-family="sans-serif" font-weight="bold" font-size="14.00" fill="#000000">Legend</text>
<polygon fill="#ffffb3" stroke="transparent" points="820,-10 820,-30 840,-30 840,-10 820,-10"/>
<text text-anchor="start" x="843.629" y="-15.4" font-family="sans-serif" font-size="14.00" fill="#000000"> &#160;Declarations</text>
<polygon fill="#8dd3c7" stroke="transparent" points="933,-10 933,-30 953,-30 953,-10 933,-10"/>
<text text-anchor="start" x="956.7251" y="-15.4" font-family="sans-serif" font-size="14.00" fill="#000000"> &#160;Module</text>
<polygon fill="#80b1d3" stroke="transparent" points="1019,-10 1019,-30 1039,-30 1039,-10 1019,-10"/>
<text text-anchor="start" x="1042.7812" y="-15.4" font-family="sans-serif" font-size="14.00" fill="#000000"> &#160;Bootstrap</text>
<polygon fill="#fdb462" stroke="transparent" points="1116,-10 1116,-30 1136,-30 1136,-10 1116,-10"/>
<text text-anchor="start" x="1139.6732" y="-15.4" font-family="sans-serif" font-size="14.00" fill="#000000"> &#160;Providers</text>
<polygon fill="#fb8072" stroke="transparent" points="1212,-10 1212,-30 1232,-30 1232,-10 1212,-10"/>
<text text-anchor="start" x="1235.7258" y="-15.4" font-family="sans-serif" font-size="14.00" fill="#000000"> &#160;Exports</text>
<g id="clust1" class="cluster">
<title>cluster_AppModule</title>
<polygon fill="none" stroke="#000000" stroke-dasharray="1,5" points="8,-70 8,-268 2100,-268 2100,-70 8,-70"/>
</g>
<g id="clust2" class="cluster">
<title>cluster_AppModule_declarations</title>
<polygon fill="none" stroke="#000000" points="156,-78 156,-130 2092,-130 2092,-78 156,-78"/>
</g>
<g id="clust16" class="cluster">
<title>cluster_AppModule_bootstrap</title>
<polygon fill="none" stroke="#000000" points="963,-208 963,-260 1087,-260 1087,-208 963,-208"/>
</g>
<g id="clust17" class="cluster">
<title>cluster_AppModule_providers</title>
<polygon fill="none" stroke="#000000" points="16,-78 16,-130 148,-130 148,-78 16,-78"/>
</g>
<!-- AppComponent -->
<g id="node1" class="node">
<title>AppComponent</title>
<polygon fill="#ffffb3" stroke="#000000" points="2083.9399,-122 1978.0601,-122 1978.0601,-86 2083.9399,-86 2083.9399,-122"/>
<text text-anchor="middle" x="2031" y="-99.8" font-family="Times,serif" font-size="14.00" fill="#000000">AppComponent</text>
</g>
<!-- AppModule -->
<g id="node12" class="node">
<title>AppModule</title>
<polygon fill="#8dd3c7" stroke="#000000" points="1066.6571,-187 1063.6571,-191 1042.6571,-191 1039.6571,-187 983.3429,-187 983.3429,-151 1066.6571,-151 1066.6571,-187"/>
<text text-anchor="middle" x="1025" y="-164.8" font-family="Times,serif" font-size="14.00" fill="#000000">AppModule</text>
</g>
<!-- AppComponent&#45;&gt;AppModule -->
<g id="edge1" class="edge">
<title>AppComponent&#45;&gt;AppModule</title>
<path fill="none" stroke="#000000" d="M2031,-122.2479C2031,-145.0179 2031,-181 2031,-181 2031,-181 1076.9458,-181 1076.9458,-181"/>
<polygon fill="#000000" stroke="#000000" points="1076.9458,-177.5001 1066.9458,-181 1076.9457,-184.5001 1076.9458,-177.5001"/>
</g>
<!-- CadastroBandaComponent -->
<g id="node2" class="node">
<title>CadastroBandaComponent</title>
<polygon fill="#ffffb3" stroke="#000000" points="1960.3599,-122 1793.6401,-122 1793.6401,-86 1960.3599,-86 1960.3599,-122"/>
<text text-anchor="middle" x="1877" y="-99.8" font-family="Times,serif" font-size="14.00" fill="#000000">CadastroBandaComponent</text>
</g>
<!-- CadastroBandaComponent&#45;&gt;AppModule -->
<g id="edge2" class="edge">
<title>CadastroBandaComponent&#45;&gt;AppModule</title>
<path fill="none" stroke="#000000" d="M1877,-122.2843C1877,-143.3211 1877,-175 1877,-175 1877,-175 1076.6705,-175 1076.6705,-175"/>
<polygon fill="#000000" stroke="#000000" points="1076.6705,-171.5001 1066.6705,-175 1076.6705,-178.5001 1076.6705,-171.5001"/>
</g>
<!-- CadastroEnsaioComponent -->
<g id="node3" class="node">
<title>CadastroEnsaioComponent</title>
<polygon fill="#ffffb3" stroke="#000000" points="1775.6965,-122 1606.3035,-122 1606.3035,-86 1775.6965,-86 1775.6965,-122"/>
<text text-anchor="middle" x="1691" y="-99.8" font-family="Times,serif" font-size="14.00" fill="#000000">CadastroEnsaioComponent</text>
</g>
<!-- CadastroEnsaioComponent&#45;&gt;AppModule -->
<g id="edge3" class="edge">
<title>CadastroEnsaioComponent&#45;&gt;AppModule</title>
<path fill="none" stroke="#000000" d="M1691,-122.1061C1691,-141.3391 1691,-169 1691,-169 1691,-169 1076.6613,-169 1076.6613,-169"/>
<polygon fill="#000000" stroke="#000000" points="1076.6613,-165.5001 1066.6613,-169 1076.6612,-172.5001 1076.6613,-165.5001"/>
</g>
<!-- CadastroFuncoesComponent -->
<g id="node4" class="node">
<title>CadastroFuncoesComponent</title>
<polygon fill="#ffffb3" stroke="#000000" points="1588.7506,-122 1411.2494,-122 1411.2494,-86 1588.7506,-86 1588.7506,-122"/>
<text text-anchor="middle" x="1500" y="-99.8" font-family="Times,serif" font-size="14.00" fill="#000000">CadastroFuncoesComponent</text>
</g>
<!-- CadastroFuncoesComponent&#45;&gt;AppModule -->
<g id="edge4" class="edge">
<title>CadastroFuncoesComponent&#45;&gt;AppModule</title>
<path fill="none" stroke="#000000" d="M1500,-122.0225C1500,-139.3734 1500,-163 1500,-163 1500,-163 1076.7368,-163 1076.7368,-163"/>
<polygon fill="#000000" stroke="#000000" points="1076.7368,-159.5001 1066.7368,-163 1076.7367,-166.5001 1076.7368,-159.5001"/>
</g>
<!-- CadastroHorariosComponent -->
<g id="node5" class="node">
<title>CadastroHorariosComponent</title>
<polygon fill="#ffffb3" stroke="#000000" points="1393.0716,-122 1212.9284,-122 1212.9284,-86 1393.0716,-86 1393.0716,-122"/>
<text text-anchor="middle" x="1303" y="-99.8" font-family="Times,serif" font-size="14.00" fill="#000000">CadastroHorariosComponent</text>
</g>
<!-- CadastroHorariosComponent&#45;&gt;AppModule -->
<g id="edge5" class="edge">
<title>CadastroHorariosComponent&#45;&gt;AppModule</title>
<path fill="none" stroke="#000000" d="M1303,-122.2396C1303,-137.5706 1303,-157 1303,-157 1303,-157 1076.9204,-157 1076.9204,-157"/>
<polygon fill="#000000" stroke="#000000" points="1076.9204,-153.5001 1066.9204,-157 1076.9204,-160.5001 1076.9204,-153.5001"/>
</g>
<!-- CadastroUsuarioComponent -->
<g id="node6" class="node">
<title>CadastroUsuarioComponent</title>
<polygon fill="#ffffb3" stroke="#000000" points="1194.9115,-122 1019.0885,-122 1019.0885,-86 1194.9115,-86 1194.9115,-122"/>
<text text-anchor="middle" x="1107" y="-99.8" font-family="Times,serif" font-size="14.00" fill="#000000">CadastroUsuarioComponent</text>
</g>
<!-- CadastroUsuarioComponent&#45;&gt;AppModule -->
<g id="edge6" class="edge">
<title>CadastroUsuarioComponent&#45;&gt;AppModule</title>
<path fill="none" stroke="#000000" d="M1043.0614,-122.1061C1043.0614,-122.1061 1043.0614,-140.991 1043.0614,-140.991"/>
<polygon fill="#000000" stroke="#000000" points="1039.5614,-140.9909 1043.0614,-150.991 1046.5614,-140.991 1039.5614,-140.9909"/>
</g>
<!-- HomeComponent -->
<g id="node7" class="node">
<title>HomeComponent</title>
<polygon fill="#ffffb3" stroke="#000000" points="1001.5451,-122 886.4549,-122 886.4549,-86 1001.5451,-86 1001.5451,-122"/>
<text text-anchor="middle" x="944" y="-99.8" font-family="Times,serif" font-size="14.00" fill="#000000">HomeComponent</text>
</g>
<!-- HomeComponent&#45;&gt;AppModule -->
<g id="edge7" class="edge">
<title>HomeComponent&#45;&gt;AppModule</title>
<path fill="none" stroke="#000000" d="M992.472,-122.1061C992.472,-122.1061 992.472,-140.991 992.472,-140.991"/>
<polygon fill="#000000" stroke="#000000" points="988.972,-140.9909 992.472,-150.991 995.972,-140.991 988.972,-140.9909"/>
</g>
<!-- LoginComponent -->
<g id="node8" class="node">
<title>LoginComponent</title>
<polygon fill="#ffffb3" stroke="#000000" points="868.2758,-122 753.7242,-122 753.7242,-86 868.2758,-86 868.2758,-122"/>
<text text-anchor="middle" x="811" y="-99.8" font-family="Times,serif" font-size="14.00" fill="#000000">LoginComponent</text>
</g>
<!-- LoginComponent&#45;&gt;AppModule -->
<g id="edge8" class="edge">
<title>LoginComponent&#45;&gt;AppModule</title>
<path fill="none" stroke="#000000" d="M811,-122.2396C811,-137.5706 811,-157 811,-157 811,-157 973.2306,-157 973.2306,-157"/>
<polygon fill="#000000" stroke="#000000" points="973.2307,-160.5001 983.2306,-157 973.2306,-153.5001 973.2307,-160.5001"/>
</g>
<!-- VisualizarBandaComponent -->
<g id="node9" class="node">
<title>VisualizarBandaComponent</title>
<polygon fill="#ffffb3" stroke="#000000" points="735.126,-122 560.874,-122 560.874,-86 735.126,-86 735.126,-122"/>
<text text-anchor="middle" x="648" y="-99.8" font-family="Times,serif" font-size="14.00" fill="#000000">VisualizarBandaComponent</text>
</g>
<!-- VisualizarBandaComponent&#45;&gt;AppModule -->
<g id="edge9" class="edge">
<title>VisualizarBandaComponent&#45;&gt;AppModule</title>
<path fill="none" stroke="#000000" d="M648,-122.0225C648,-139.3734 648,-163 648,-163 648,-163 973.214,-163 973.214,-163"/>
<polygon fill="#000000" stroke="#000000" points="973.214,-166.5001 983.214,-163 973.2139,-159.5001 973.214,-166.5001"/>
</g>
<!-- VisualizarEnsaioComponent -->
<g id="node10" class="node">
<title>VisualizarEnsaioComponent</title>
<polygon fill="#ffffb3" stroke="#000000" points="542.4622,-122 365.5378,-122 365.5378,-86 542.4622,-86 542.4622,-122"/>
<text text-anchor="middle" x="454" y="-99.8" font-family="Times,serif" font-size="14.00" fill="#000000">VisualizarEnsaioComponent</text>
</g>
<!-- VisualizarEnsaioComponent&#45;&gt;AppModule -->
<g id="edge10" class="edge">
<title>VisualizarEnsaioComponent&#45;&gt;AppModule</title>
<path fill="none" stroke="#000000" d="M454,-122.1061C454,-141.3391 454,-169 454,-169 454,-169 973.013,-169 973.013,-169"/>
<polygon fill="#000000" stroke="#000000" points="973.013,-172.5001 983.013,-169 973.013,-165.5001 973.013,-172.5001"/>
</g>
<!-- VisualizarUsuarioComponent -->
<g id="node11" class="node">
<title>VisualizarUsuarioComponent</title>
<polygon fill="#ffffb3" stroke="#000000" points="347.6769,-122 164.3231,-122 164.3231,-86 347.6769,-86 347.6769,-122"/>
<text text-anchor="middle" x="256" y="-99.8" font-family="Times,serif" font-size="14.00" fill="#000000">VisualizarUsuarioComponent</text>
</g>
<!-- VisualizarUsuarioComponent&#45;&gt;AppModule -->
<g id="edge11" class="edge">
<title>VisualizarUsuarioComponent&#45;&gt;AppModule</title>
<path fill="none" stroke="#000000" d="M256,-122.2843C256,-143.3211 256,-175 256,-175 256,-175 973.1091,-175 973.1091,-175"/>
<polygon fill="#000000" stroke="#000000" points="973.1091,-178.5001 983.1091,-175 973.1091,-171.5001 973.1091,-178.5001"/>
</g>
<!-- AppComponent  -->
<g id="node13" class="node">
<title>AppComponent </title>
<polygon fill="#80b1d3" stroke="#000000" points="1079.439,-252 970.561,-252 970.561,-216 1079.439,-216 1079.439,-252"/>
<text text-anchor="middle" x="1025" y="-229.8" font-family="Times,serif" font-size="14.00" fill="#000000">AppComponent </text>
</g>
<!-- AppModule&#45;&gt;AppComponent  -->
<g id="edge12" class="edge">
<title>AppModule&#45;&gt;AppComponent </title>
<path fill="none" stroke="#000000" stroke-dasharray="1,5" d="M1025,-187.1061C1025,-187.1061 1025,-205.991 1025,-205.991"/>
<polygon fill="#000000" stroke="#000000" points="1021.5001,-205.9909 1025,-215.991 1028.5001,-205.991 1021.5001,-205.9909"/>
</g>
<!-- DataService -->
<g id="node14" class="node">
<title>DataService</title>
<ellipse fill="#fdb462" stroke="#000000" cx="82" cy="-104" rx="58.4415" ry="18"/>
<text text-anchor="middle" x="82" y="-99.8" font-family="Times,serif" font-size="14.00" fill="#000000">DataService</text>
</g>
<!-- DataService&#45;&gt;AppModule -->
<g id="edge13" class="edge">
<title>DataService&#45;&gt;AppModule</title>
<path fill="none" stroke="#000000" d="M82,-122.2479C82,-145.0179 82,-181 82,-181 82,-181 973.2637,-181 973.2637,-181"/>
<polygon fill="#000000" stroke="#000000" points="973.2637,-184.5001 983.2637,-181 973.2637,-177.5001 973.2637,-184.5001"/>
</g>
</g>
</svg>
